<svg xmlns="http://www.w3.org/2000/svg" width="130.589" height="35" viewBox="0 0 130.589 35"><defs><style>.a{fill:#9c3;}.b{fill:#030504;}</style></defs><g transform="translate(-99.887 -177.88)"><path class="a" d="M220.814,227.613H126.6c-6.926,0-14.111,5.6-15.967,12.443-.086.317-.154.628-.214.938l0,0a2.982,2.982,0,0,1-.262.691c-1.136,2.15-3.845,5.046-10.269,5.659,0,0,3.793,2.509,12.23,1.715a9.573,9.573,0,0,0,7.736,3.444h94.212c6.927,0,14.112-5.6,15.968-12.443S227.74,227.613,220.814,227.613Z" transform="translate(0 -39.619)"/><g transform="translate(119.014 177.88)"><path class="b" d="M448.384,248.32l-3.1,5.094h1.2l-4.414,12.127H447.4l6.268-17.222Z" transform="translate(-391.604 -233.995)"/><path class="b" d="M498.3,248.32h-5.764l-5.432,5.788,2.107-5.788h-5.358l-3.033,5.047h1.2l-4.431,12.175h5.358l2.2-6.052,1.123,6.052h6.148l-1.67-9.017Z" transform="translate(-419.898 -233.995)"/><path class="b" d="M560.289,260.16l.383-1.052h5.143l2.767-4.449h-6.29l.357-.98h5.405l3.162-5.358H559.241l-3.094,5.214h1.2l-4.37,12.007h10.285l3.226-5.382Z" transform="translate(-479.954 -233.995)"/><path class="b" d="M369.088,258.61a3.477,3.477,0,0,0-1.014-1.878l-.317-.311a7.184,7.184,0,0,0,3.271-3.205,5,5,0,0,0,.222-.479c.017-.048.05-.135.1-.263a2.856,2.856,0,0,0-.69-3.492,3.281,3.281,0,0,0-2.124-.669h-3.144v0l-9.22,0,.017.014a5.548,5.548,0,0,1,1.494,2.012,5.168,5.168,0,0,1,.4,1.1,6.476,6.476,0,0,1,.266,1.921,12.267,12.267,0,0,1-.268,2.239l0,.018c-.063.229-.118.45-.163.654a7.225,7.225,0,0,1-.208.724,14.144,14.144,0,0,1-2.033,3.7l0,0a17.1,17.1,0,0,1-1.933,2.153,16.129,16.129,0,0,1-2.393,1.789,13.337,13.337,0,0,1-1.6.838c-.046.021-.1.04-.146.06h6.127l0-.005h6.322a6.248,6.248,0,0,0,1.576-.191,6.982,6.982,0,0,0,1.51-.6,7.064,7.064,0,0,0,3.553-3.779A5.218,5.218,0,0,0,369.088,258.61Zm-5.693.92a1.681,1.681,0,0,1-.529.83,1.251,1.251,0,0,1-.839.366h-1.7l.844-2.32h.837Q363.8,258.407,363.4,259.53Zm2.181-5.6a1.476,1.476,0,0,1-.968.885c-.141.033-.3.064-.478.1a3.019,3.019,0,0,1-.531.048h-1.172l.731-2.009h.98a4.174,4.174,0,0,1,1.022.084.615.615,0,0,1,.4.347A.7.7,0,0,1,365.576,253.934Z" transform="translate(-317.938 -233.987)"/><path class="b" d="M213.181,251.7l.1-.335h-8.013l-2.791,4.449h2.775q-.279.239-.5.406a4.443,4.443,0,0,1-.459.311,3.64,3.64,0,0,1-1.842.526,5.113,5.113,0,0,1-1.25-.179A1.9,1.9,0,0,1,200.06,256a2.554,2.554,0,0,1-.158-2.392q.122-.335.215-.526a2.944,2.944,0,0,1,.381-.718,4.008,4.008,0,0,1,.306-.382,5.924,5.924,0,0,1,1.82-1.483,4.5,4.5,0,0,1,2.093-.527,4.676,4.676,0,0,1,.965.108,4.135,4.135,0,0,1,1.092.419l.376.215.226.167,5.34-4.09c.812-.673.812-.588.812-1.227v-.492a1.165,1.165,0,0,0-1.162-1.162H199.5a1.166,1.166,0,0,0-1.162,1.162v.492c0,.639.275.891,1.181,1.532h0c-.163.117-.326.237-.492.364a12.6,12.6,0,0,0-1.425,1.22,12.182,12.182,0,0,0-3,4.569,9.568,9.568,0,0,0-.668,3.217,6.541,6.541,0,0,0,.644,2.763,5.24,5.24,0,0,0,.7,1.1,5.176,5.176,0,0,0,.955.861,6.425,6.425,0,0,0,3.172,1.076,9.818,9.818,0,0,0,1.17.071,8.9,8.9,0,0,0,2.486-.359,13.83,13.83,0,0,0,2.6-1.076,16.06,16.06,0,0,0,1.838-1.171,14.544,14.544,0,0,0,2.412-2.189,22.948,22.948,0,0,0,2.1-3.1,15.559,15.559,0,0,0,1.045-2.344Z" transform="translate(-193.935 -230.484)"/><path class="b" d="M297.341,204.219a12.435,12.435,0,0,0,1.952-3.3,5.953,5.953,0,0,0,.191-.618c.047-.2.1-.407.167-.626a10.062,10.062,0,0,0,.254-1.973,5.14,5.14,0,0,0-.246-1.64,4.171,4.171,0,0,0-.366-.938,4.72,4.72,0,0,0-1.352-1.7,6.524,6.524,0,0,0-1.7-.99,5.571,5.571,0,0,0-1.945-.307h-1.353a12.128,12.128,0,0,0-3.081.642c-.326.117-.661.262-1,.419l-.1-.239-1.141-2.791a1.515,1.515,0,0,0,1.033-1.431v-1.443a1.515,1.515,0,0,0-1.51-1.51h-2.081l-1.162-2.724c0-.014,0-.028,0-.043v-.481a.505.505,0,0,0-.5-.5h-.179l-1.129-1.276a4.423,4.423,0,0,0,.07-.8c0-1.145-.41-2.072-.916-2.072s-.915.928-.915,2.072.41,2.072.915,2.072c.307,0,.579-.345.745-.871l.771.871h-3.048a.5.5,0,0,0-.5.5v.481a.5.5,0,0,0,.5.5h2.167c-.867.278-2.252.888-1.521,1.8,0,0,1.274.429.97-.515,0,0-1.269-.157.843-1.287h.926l.966,2.264h-.312a1.515,1.515,0,0,0-1.51,1.51v1.443a1.514,1.514,0,0,0,1.51,1.51h1.424l1.467,3.587.2.487a14.906,14.906,0,0,0-3.636,3.357,15.81,15.81,0,0,0-.916,1.319,6.534,6.534,0,0,0-.577,1.173c-.173.475-.3.84-.372,1.087s-.14.492-.194.725a7.772,7.772,0,0,0-.2,2.7,5.75,5.75,0,0,0,.9,2.322,4.548,4.548,0,0,0,1.384,1.465,6.277,6.277,0,0,0,2.15.812l1.148.162c.543,0,1.119-.024,1.71-.071a9.313,9.313,0,0,0,1.527-.232,15.678,15.678,0,0,0,1.842-.61,13.344,13.344,0,0,0,1.541-.751,15.607,15.607,0,0,0,2.314-1.61A15.821,15.821,0,0,0,297.341,204.219Zm-3.58-3.187a2.918,2.918,0,0,1-.251.526c-.1.159-.238.359-.421.6a5.041,5.041,0,0,1-3.291,2.01,2.963,2.963,0,0,1-.615.048,2.642,2.642,0,0,1-.581-.048,2.2,2.2,0,0,1-1.623-1.029,2.542,2.542,0,0,1-.19-2.01,3.022,3.022,0,0,1,.124-.406,4.966,4.966,0,0,1,1.666-2.181l1.136,2.778a.777.777,0,0,0,1.01.423l.685-.28a.776.776,0,0,0,.423-1.01l-1.208-2.952a4.245,4.245,0,0,1,1.079-.15,3.07,3.07,0,0,1,.47.024,2.069,2.069,0,0,1,1.7,1.244A3.362,3.362,0,0,1,293.762,201.032Z" transform="translate(-261.875 -177.88)"/><path class="b" d="M625.078,252.387a1.357,1.357,0,0,1,.363-.225,2.326,2.326,0,0,1,.939-.05,3.5,3.5,0,0,1,1.132.276,18.453,18.453,0,0,1,1.885.861l.5.265,2.824-4.786a8.539,8.539,0,0,0-1.708-.783,14.242,14.242,0,0,0-1.772-.487,7.292,7.292,0,0,0-1.295-.115,10.472,10.472,0,0,0-2.807.311,9.772,9.772,0,0,0-1.972.8,8.846,8.846,0,0,0-1.418.982,7.927,7.927,0,0,0-1.061.966c-.141.156-.277.321-.4.491a7.869,7.869,0,0,0-.848,1.255,7.373,7.373,0,0,0-.386.85c-.736,1.981-.3,3.453,1.346,4.5l.676.32,2.134.864a.557.557,0,0,1,.334.308.582.582,0,0,1,0,.453,1.18,1.18,0,0,1-.337.476,1.4,1.4,0,0,1-.364.225,2.327,2.327,0,0,1-.939.05,3.787,3.787,0,0,1-1.132-.276,18.517,18.517,0,0,1-1.885-.862l-1.167-.621-2.8,4.766.811.476.064.034a8.57,8.57,0,0,0,1.479.649,14.3,14.3,0,0,0,1.772.487,7.323,7.323,0,0,0,1.3.115,10.459,10.459,0,0,0,2.807-.311,9.734,9.734,0,0,0,1.971-.8,8.827,8.827,0,0,0,1.418-.982,7.833,7.833,0,0,0,1.061-.966c.142-.156.278-.321.4-.491a7.894,7.894,0,0,0,.848-1.256,7.485,7.485,0,0,0,.385-.849c.736-1.981.3-3.454-1.346-4.5l-.677-.32-2.135-.864a.562.562,0,0,1-.334-.306.591.591,0,0,1,0-.455A1.178,1.178,0,0,1,625.078,252.387Z" transform="translate(-529.302 -233.217)"/></g></g></svg>